<svg xmlns="http://www.w3.org/2000/svg" xmlns:xlink="http://www.w3.org/1999/xlink" version="1.1" x="0px" y="0px" viewBox="0 0 32 40" enable-background="new 0 0 32 32" xml:space="preserve"><g><path d="M15.2,23.5V30h-4.7c-0.4,0-0.8,0.3-0.8,0.8c0,0.4,0.3,0.8,0.8,0.8h10.9c0.4,0,0.8-0.3,0.8-0.8c0-0.4-0.3-0.8-0.8-0.8h-4.7   v-6.5l6.5-9H8.7L15.2,23.5z"/><path d="M4,6C3.7,6,3.5,6.2,3.3,6.4C3.2,6.7,3.2,7,3.4,7.2L7.6,13h4.8L9.7,6H4z"/><path d="M28.7,6.4C28.5,6.2,28.3,6,28,6H11.3l2.8,7h10.3l4.2-5.8C28.8,7,28.8,6.7,28.7,6.4z"/><path d="M9.8,2.1C9.7,1.9,9.5,1.7,9.2,1.7l-5-1.1C3.8,0.4,3.4,0.7,3.3,1.1C3.2,1.5,3.5,1.9,3.9,2l4.6,1.1l1.2,3h1.6L9.8,2.1z"/></g><text x="0" y="47" fill="#000000" font-size="5px" font-weight="bold" font-family="'Helvetica Neue', Helvetica, Arial-Unicode, Arial, Sans-serif">Created by Creative Stall</text><text x="0" y="52" fill="#000000" font-size="5px" font-weight="bold" font-family="'Helvetica Neue', Helvetica, Arial-Unicode, Arial, Sans-serif">from the Noun Project</text></svg>